<mxfile host="Electron" modified="2024-04-14T01:28:01.386Z" agent="Mozilla/5.0 (Windows NT 10.0; Win64; x64) AppleWebKit/537.36 (KHTML, like Gecko) draw.io/24.1.0 Chrome/120.0.6099.109 Electron/28.1.0 Safari/537.36" etag="phM3rzMZLt5ZS-JCwhm9" version="24.1.0" type="device">
  <diagram name="Page-1" id="pm0_Eibjx5mI8Hq2QCKU">
    <mxGraphModel dx="1050" dy="621" grid="1" gridSize="10" guides="1" tooltips="1" connect="1" arrows="1" fold="1" page="1" pageScale="1" pageWidth="827" pageHeight="1169" math="0" shadow="0">
      <root>
        <mxCell id="0" />
        <mxCell id="1" parent="0" />
        <mxCell id="StPibea5MGiNyrbgEvGl-1" value="" style="ellipse;html=1;" vertex="1" parent="1">
          <mxGeometry x="380" y="70" width="30" height="30" as="geometry" />
        </mxCell>
        <mxCell id="StPibea5MGiNyrbgEvGl-2" value="" style="endArrow=open;html=1;rounded=0;align=center;verticalAlign=top;endFill=0;labelBackgroundColor=none;endSize=6;entryX=0.5;entryY=0;entryDx=0;entryDy=0;" edge="1" parent="1" source="StPibea5MGiNyrbgEvGl-1" target="StPibea5MGiNyrbgEvGl-4">
          <mxGeometry relative="1" as="geometry">
            <mxPoint x="395" y="160" as="targetPoint" />
          </mxGeometry>
        </mxCell>
        <mxCell id="StPibea5MGiNyrbgEvGl-3" style="edgeStyle=orthogonalEdgeStyle;rounded=0;orthogonalLoop=1;jettySize=auto;html=1;exitX=0.5;exitY=1;exitDx=0;exitDy=0;entryX=0.5;entryY=0;entryDx=0;entryDy=0;" edge="1" parent="1" source="StPibea5MGiNyrbgEvGl-4" target="StPibea5MGiNyrbgEvGl-6">
          <mxGeometry relative="1" as="geometry">
            <mxPoint x="395" y="300" as="targetPoint" />
          </mxGeometry>
        </mxCell>
        <mxCell id="StPibea5MGiNyrbgEvGl-4" value="Zaposlenik odabire opciju slanja nove obavijesti" style="rounded=1;whiteSpace=wrap;html=1;" vertex="1" parent="1">
          <mxGeometry x="327.5" y="170" width="135" height="60" as="geometry" />
        </mxCell>
        <mxCell id="StPibea5MGiNyrbgEvGl-5" style="edgeStyle=orthogonalEdgeStyle;rounded=0;orthogonalLoop=1;jettySize=auto;html=1;exitX=0.5;exitY=1;exitDx=0;exitDy=0;entryX=0.5;entryY=0;entryDx=0;entryDy=0;" edge="1" parent="1" source="StPibea5MGiNyrbgEvGl-6" target="StPibea5MGiNyrbgEvGl-7">
          <mxGeometry relative="1" as="geometry" />
        </mxCell>
        <mxCell id="StPibea5MGiNyrbgEvGl-6" value="Sustav prikazuje formu za kreiranje nove obavijesti" style="rounded=1;whiteSpace=wrap;html=1;" vertex="1" parent="1">
          <mxGeometry x="327.5" y="300" width="135" height="60" as="geometry" />
        </mxCell>
        <mxCell id="StPibea5MGiNyrbgEvGl-7" value="Zaposlenik ispunjava formu" style="rounded=1;whiteSpace=wrap;html=1;" vertex="1" parent="1">
          <mxGeometry x="327.5" y="430" width="135" height="60" as="geometry" />
        </mxCell>
        <mxCell id="StPibea5MGiNyrbgEvGl-8" style="edgeStyle=orthogonalEdgeStyle;rounded=0;orthogonalLoop=1;jettySize=auto;html=1;exitX=0.5;exitY=1;exitDx=0;exitDy=0;entryX=0.5;entryY=0;entryDx=0;entryDy=0;" edge="1" parent="1" source="StPibea5MGiNyrbgEvGl-7" target="StPibea5MGiNyrbgEvGl-10">
          <mxGeometry relative="1" as="geometry">
            <mxPoint x="395" y="620" as="sourcePoint" />
          </mxGeometry>
        </mxCell>
        <mxCell id="StPibea5MGiNyrbgEvGl-9" style="edgeStyle=orthogonalEdgeStyle;rounded=0;orthogonalLoop=1;jettySize=auto;html=1;exitX=0.5;exitY=1;exitDx=0;exitDy=0;entryX=0.5;entryY=0;entryDx=0;entryDy=0;" edge="1" parent="1" source="StPibea5MGiNyrbgEvGl-10" target="StPibea5MGiNyrbgEvGl-14">
          <mxGeometry relative="1" as="geometry" />
        </mxCell>
        <mxCell id="StPibea5MGiNyrbgEvGl-10" value="Potvrda slanja&amp;nbsp;&lt;div&gt;obavijesti&lt;/div&gt;" style="rounded=1;whiteSpace=wrap;html=1;" vertex="1" parent="1">
          <mxGeometry x="327.5" y="600" width="135" height="60" as="geometry" />
        </mxCell>
        <mxCell id="StPibea5MGiNyrbgEvGl-11" style="edgeStyle=orthogonalEdgeStyle;rounded=0;orthogonalLoop=1;jettySize=auto;html=1;exitX=1;exitY=0.5;exitDx=0;exitDy=0;entryX=0.5;entryY=0;entryDx=0;entryDy=0;" edge="1" parent="1" source="StPibea5MGiNyrbgEvGl-14" target="StPibea5MGiNyrbgEvGl-27">
          <mxGeometry relative="1" as="geometry">
            <mxPoint x="610" y="860" as="targetPoint" />
          </mxGeometry>
        </mxCell>
        <mxCell id="StPibea5MGiNyrbgEvGl-12" value="Ne" style="edgeLabel;html=1;align=center;verticalAlign=middle;resizable=0;points=[];" vertex="1" connectable="0" parent="StPibea5MGiNyrbgEvGl-11">
          <mxGeometry x="-0.2053" y="-1" relative="1" as="geometry">
            <mxPoint as="offset" />
          </mxGeometry>
        </mxCell>
        <mxCell id="StPibea5MGiNyrbgEvGl-13" style="edgeStyle=orthogonalEdgeStyle;rounded=0;orthogonalLoop=1;jettySize=auto;html=1;exitX=0.5;exitY=1;exitDx=0;exitDy=0;" edge="1" parent="1" source="StPibea5MGiNyrbgEvGl-14" target="StPibea5MGiNyrbgEvGl-18">
          <mxGeometry relative="1" as="geometry" />
        </mxCell>
        <mxCell id="StPibea5MGiNyrbgEvGl-14" value="Potvrda slanja?" style="rhombus;whiteSpace=wrap;html=1;" vertex="1" parent="1">
          <mxGeometry x="362.5" y="730" width="65" height="60" as="geometry" />
        </mxCell>
        <mxCell id="StPibea5MGiNyrbgEvGl-15" style="edgeStyle=orthogonalEdgeStyle;rounded=0;orthogonalLoop=1;jettySize=auto;html=1;exitX=0.5;exitY=1;exitDx=0;exitDy=0;exitPerimeter=0;" edge="1" parent="1" source="StPibea5MGiNyrbgEvGl-27" target="StPibea5MGiNyrbgEvGl-16">
          <mxGeometry relative="1" as="geometry">
            <Array as="points">
              <mxPoint x="610" y="1405" />
            </Array>
            <mxPoint x="610" y="920" as="sourcePoint" />
          </mxGeometry>
        </mxCell>
        <mxCell id="StPibea5MGiNyrbgEvGl-16" value="" style="ellipse;html=1;shape=endState;fillColor=strokeColor;" vertex="1" parent="1">
          <mxGeometry x="380" y="1390" width="30" height="30" as="geometry" />
        </mxCell>
        <mxCell id="StPibea5MGiNyrbgEvGl-17" style="edgeStyle=orthogonalEdgeStyle;rounded=0;orthogonalLoop=1;jettySize=auto;html=1;exitX=0.5;exitY=1;exitDx=0;exitDy=0;" edge="1" parent="1" source="StPibea5MGiNyrbgEvGl-18" target="StPibea5MGiNyrbgEvGl-22">
          <mxGeometry relative="1" as="geometry" />
        </mxCell>
        <mxCell id="StPibea5MGiNyrbgEvGl-18" value="Provjera ispravnosti unesenih podataka" style="rounded=1;whiteSpace=wrap;html=1;" vertex="1" parent="1">
          <mxGeometry x="327.5" y="860" width="135" height="60" as="geometry" />
        </mxCell>
        <mxCell id="StPibea5MGiNyrbgEvGl-19" style="edgeStyle=orthogonalEdgeStyle;rounded=0;orthogonalLoop=1;jettySize=auto;html=1;exitX=0;exitY=0.5;exitDx=0;exitDy=0;entryX=0;entryY=0.5;entryDx=0;entryDy=0;" edge="1" parent="1" source="StPibea5MGiNyrbgEvGl-22" target="StPibea5MGiNyrbgEvGl-6">
          <mxGeometry relative="1" as="geometry">
            <Array as="points">
              <mxPoint x="308" y="1030" />
              <mxPoint x="308" y="330" />
            </Array>
          </mxGeometry>
        </mxCell>
        <mxCell id="StPibea5MGiNyrbgEvGl-20" value="Ne" style="edgeLabel;html=1;align=center;verticalAlign=middle;resizable=0;points=[];" vertex="1" connectable="0" parent="StPibea5MGiNyrbgEvGl-19">
          <mxGeometry x="-0.1771" y="3" relative="1" as="geometry">
            <mxPoint as="offset" />
          </mxGeometry>
        </mxCell>
        <mxCell id="StPibea5MGiNyrbgEvGl-21" style="edgeStyle=orthogonalEdgeStyle;rounded=0;orthogonalLoop=1;jettySize=auto;html=1;exitX=0.5;exitY=1;exitDx=0;exitDy=0;entryX=0.5;entryY=0;entryDx=0;entryDy=0;" edge="1" parent="1" source="StPibea5MGiNyrbgEvGl-22" target="StPibea5MGiNyrbgEvGl-24">
          <mxGeometry relative="1" as="geometry" />
        </mxCell>
        <mxCell id="StPibea5MGiNyrbgEvGl-22" value="Potvrda ispravnosti?" style="rhombus;whiteSpace=wrap;html=1;" vertex="1" parent="1">
          <mxGeometry x="362.5" y="1000" width="65" height="60" as="geometry" />
        </mxCell>
        <mxCell id="StPibea5MGiNyrbgEvGl-23" style="edgeStyle=orthogonalEdgeStyle;rounded=0;orthogonalLoop=1;jettySize=auto;html=1;exitX=0.5;exitY=1;exitDx=0;exitDy=0;entryX=0.5;entryY=0;entryDx=0;entryDy=0;" edge="1" parent="1" source="StPibea5MGiNyrbgEvGl-24" target="StPibea5MGiNyrbgEvGl-26">
          <mxGeometry relative="1" as="geometry" />
        </mxCell>
        <mxCell id="StPibea5MGiNyrbgEvGl-24" value="Sustav šalje mail svim članovima sportskog centra" style="rounded=1;whiteSpace=wrap;html=1;" vertex="1" parent="1">
          <mxGeometry x="327.5" y="1130" width="135" height="60" as="geometry" />
        </mxCell>
        <mxCell id="StPibea5MGiNyrbgEvGl-25" style="edgeStyle=orthogonalEdgeStyle;rounded=0;orthogonalLoop=1;jettySize=auto;html=1;exitX=0.5;exitY=1;exitDx=0;exitDy=0;entryX=0.5;entryY=0;entryDx=0;entryDy=0;" edge="1" parent="1" source="StPibea5MGiNyrbgEvGl-26" target="StPibea5MGiNyrbgEvGl-16">
          <mxGeometry relative="1" as="geometry" />
        </mxCell>
        <mxCell id="StPibea5MGiNyrbgEvGl-26" value="Sustav prikazuje poruku o uspješno poslanoj obavijesti" style="rounded=1;whiteSpace=wrap;html=1;" vertex="1" parent="1">
          <mxGeometry x="327.5" y="1260" width="135" height="60" as="geometry" />
        </mxCell>
        <mxCell id="StPibea5MGiNyrbgEvGl-27" value="Povratak na početni prikaz" style="rounded=1;whiteSpace=wrap;html=1;" vertex="1" parent="1">
          <mxGeometry x="550" y="860" width="120" height="60" as="geometry" />
        </mxCell>
      </root>
    </mxGraphModel>
  </diagram>
</mxfile>
